<svg width="32" height="32" viewBox="0 0 32 32" fill="none" xmlns="http://www.w3.org/2000/svg">
<path d="M0 16C0 7.16344 7.16344 0 16 0C24.8366 0 32 7.16344 32 16C32 24.8366 24.8366 32 16 32C7.16344 32 0 24.8366 0 16Z" fill="white" fill-opacity="0.08"/>
<path d="M12.9001 10.5417L11.4167 9.79175L12.4667 7.66675H19.5251L20.5834 9.79175L19.1001 10.5334L18.5001 9.33341H13.5001L12.9001 10.5417ZM21.5167 12.6667H17.7417L17.0834 10.1667H14.9167L14.2584 12.6667H10.4834L9.41675 14.7917L10.9084 15.5334L11.5167 14.3334H20.4834L21.0834 15.5417L22.5751 14.8001L21.5167 12.6667ZM20.8084 24.3334H19.0834L18.8834 23.5834L16.0001 19.2501L13.1084 23.5834L12.9167 24.3334H11.1917L13.6001 15.1667H15.3251L15.0251 16.2917L16.0001 17.7501L16.9667 16.2917L16.6751 15.1667H18.4001L20.8084 24.3334ZM15.5001 18.5001L14.7501 17.3751L13.7667 21.1084L15.5001 18.5001ZM18.2334 21.1001L17.2501 17.3667L16.5001 18.5001L18.2334 21.1001Z" fill="#F2C94C"/>
</svg>
