<svg width="20" height="20" viewBox="0 0 20 20" fill="none" xmlns="http://www.w3.org/2000/svg">
<path d="M6.90008 4.54175L5.41675 3.79175L6.46675 1.66675H13.5251L14.5834 3.79175L13.1001 4.53341L12.5001 3.33341H7.50008L6.90008 4.54175ZM15.5167 6.66675H11.7417L11.0834 4.16675H8.91675L8.25841 6.66675H4.48341L3.41675 8.79175L4.90841 9.53341L5.51675 8.33341H14.4834L15.0834 9.54175L16.5751 8.80008L15.5167 6.66675ZM14.8084 18.3334H13.0834L12.8834 17.5834L10.0001 13.2501L7.10841 17.5834L6.91675 18.3334H5.19175L7.60008 9.16675H9.32508L9.02508 10.2917L10.0001 11.7501L10.9667 10.2917L10.6751 9.16675H12.4001L14.8084 18.3334ZM9.50008 12.5001L8.75008 11.3751L7.76675 15.1084L9.50008 12.5001ZM12.2334 15.1001L11.2501 11.3667L10.5001 12.5001L12.2334 15.1001Z" fill="#F2C94C"/>
</svg>
