<svg width="32" height="32" viewBox="0 0 32 32" fill="none" xmlns="http://www.w3.org/2000/svg">
<path d="M0 16C0 7.16344 7.16344 0 16 0C24.8366 0 32 7.16344 32 16C32 24.8366 24.8366 32 16 32C7.16344 32 0 24.8366 0 16Z" fill="white" fill-opacity="0.08"/>
<path d="M17 8H15L14 6H18L17 8ZM23 17V26H9V17C9 14.24 11.24 12 14 12V10H13V9H19V10H18V12C20.76 12 23 14.24 23 17ZM21 17C21 15.35 19.65 14 18 14H14C12.35 14 11 15.35 11 17V24H21V17ZM19 20H17V22H15V20H13V18H15V16H17V18H19V20Z" fill="#32C370"/>
</svg>
