<svg width="49" height="40" viewBox="0 0 49 40" fill="none" xmlns="http://www.w3.org/2000/svg">
<path d="M13.3386 38H12.2742V30.9541H13.2605L16.8787 35.959H16.9568V30.9541H18.0212V38H17.0349L13.4167 32.9951H13.3386V38ZM22.7869 33.8496C22.5525 33.599 22.2416 33.4736 21.8542 33.4736C21.4669 33.4736 21.1479 33.599 20.8972 33.8496C20.6466 34.1003 20.5066 34.4339 20.4773 34.8506H23.1628C23.1498 34.4307 23.0245 34.097 22.7869 33.8496ZM23.158 36.5645H24.1687C24.0483 37.043 23.7846 37.4189 23.3777 37.6924C22.974 37.9658 22.4695 38.1025 21.864 38.1025C21.1023 38.1025 20.5017 37.8584 20.0623 37.3701C19.6261 36.8786 19.408 36.208 19.408 35.3584C19.408 34.5088 19.6293 33.8333 20.072 33.332C20.5147 32.8307 21.1104 32.5801 21.8591 32.5801C22.5981 32.5801 23.1775 32.8177 23.5974 33.293C24.0206 33.7682 24.2322 34.4242 24.2322 35.2607V35.627H20.4773V35.6855C20.4936 36.1543 20.6287 36.5254 20.8826 36.7988C21.1365 37.0723 21.4734 37.209 21.8933 37.209C22.5346 37.209 22.9561 36.9941 23.158 36.5645ZM32.3767 32.6826L30.9167 38H29.8279L28.7292 34.084H28.6462L27.5525 38H26.4734L25.0085 32.6826H26.073L27.0251 36.7402H27.1033L28.197 32.6826H29.2029L30.2966 36.7402H30.3796L31.3269 32.6826H32.3767ZM33.1921 34.1865C33.1921 33.7178 33.3858 33.3337 33.7732 33.0342C34.1606 32.7314 34.6554 32.5801 35.2576 32.5801C35.8565 32.5801 36.3399 32.7119 36.7078 32.9756C37.0756 33.2393 37.2856 33.6055 37.3376 34.0742H36.3318C36.283 33.8757 36.1641 33.7194 35.9753 33.6055C35.7898 33.4915 35.5505 33.4346 35.2576 33.4346C34.9613 33.4346 34.7156 33.4997 34.5203 33.6299C34.325 33.7568 34.2273 33.9229 34.2273 34.1279C34.2273 34.2874 34.2957 34.4193 34.4324 34.5234C34.5691 34.6276 34.7823 34.7122 35.072 34.7773L35.9558 34.9824C36.4669 35.0996 36.8412 35.2738 37.0789 35.5049C37.3197 35.736 37.4402 36.0452 37.4402 36.4326C37.4402 36.9274 37.2335 37.3294 36.8201 37.6387C36.4067 37.9479 35.8793 38.1025 35.238 38.1025C34.6065 38.1025 34.0955 37.9691 33.7048 37.7021C33.3175 37.432 33.101 37.0609 33.0554 36.5889H34.1052C34.1736 36.7972 34.3054 36.96 34.5007 37.0771C34.696 37.1943 34.95 37.2529 35.2625 37.2529C35.5912 37.2529 35.8598 37.1862 36.0681 37.0527C36.2764 36.9193 36.3806 36.7467 36.3806 36.5352C36.3806 36.2259 36.1202 36.0094 35.5994 35.8857L34.6716 35.6709C34.1638 35.5505 33.7895 35.3714 33.5486 35.1338C33.311 34.8962 33.1921 34.5804 33.1921 34.1865Z" fill="white" fill-opacity="0.4"/>
<path d="M33.1667 5V19H17.1667V5H33.1667ZM33.1667 3H17.1667C16.0567 3 15.1667 3.89 15.1667 5V19C15.1667 20.11 16.0567 21 17.1667 21H33.1667C34.2767 21 35.1667 20.11 35.1667 19V5C35.1667 3.89 34.2767 3 33.1667 3ZM31.1667 15H19.1667V17H31.1667V15ZM23.1667 7H19.1667V13H23.1667V7ZM25.1667 9H31.1667V7H25.1667V9ZM31.1667 11H25.1667V13H31.1667V11Z" fill="white" fill-opacity="0.4"/>
</svg>
