<svg width="53" height="52" viewBox="0 0 53 52" fill="none" xmlns="http://www.w3.org/2000/svg">
<path d="M1.7002 38H0.606445V30.9541H1.7002V38ZM3.3457 38V32.6826H4.35645V33.5273H4.43457C4.71126 32.8958 5.24023 32.5801 6.02148 32.5801C6.61393 32.5801 7.06803 32.751 7.38379 33.0928C7.7028 33.4346 7.8623 33.9229 7.8623 34.5576V38H6.8125V34.8213C6.8125 33.9684 6.43001 33.542 5.66504 33.542C5.27767 33.542 4.96842 33.6641 4.7373 33.9082C4.50944 34.1491 4.39551 34.4762 4.39551 34.8896V38H3.3457ZM13.668 32.6826L11.7539 38H10.626L8.70703 32.6826H9.83008L11.1533 36.877H11.2363L12.5547 32.6826H13.668ZM17.6426 33.8496C17.4082 33.599 17.0973 33.4736 16.71 33.4736C16.3226 33.4736 16.0036 33.599 15.7529 33.8496C15.5023 34.1003 15.3623 34.4339 15.333 34.8506H18.0186C18.0055 34.4307 17.8802 34.097 17.6426 33.8496ZM18.0137 36.5645H19.0244C18.904 37.043 18.6403 37.4189 18.2334 37.6924C17.8298 37.9658 17.3252 38.1025 16.7197 38.1025C15.958 38.1025 15.3574 37.8584 14.918 37.3701C14.4818 36.8786 14.2637 36.208 14.2637 35.3584C14.2637 34.5088 14.485 33.8333 14.9277 33.332C15.3704 32.8307 15.9661 32.5801 16.7148 32.5801C17.4538 32.5801 18.0332 32.8177 18.4531 33.293C18.8763 33.7682 19.0879 34.4242 19.0879 35.2607V35.627H15.333V35.6855C15.3493 36.1543 15.4844 36.5254 15.7383 36.7988C15.9922 37.0723 16.3291 37.209 16.749 37.209C17.3903 37.209 17.8118 36.9941 18.0137 36.5645ZM20.2256 34.1865C20.2256 33.7178 20.4193 33.3337 20.8066 33.0342C21.194 32.7314 21.6888 32.5801 22.291 32.5801C22.89 32.5801 23.3734 32.7119 23.7412 32.9756C24.109 33.2393 24.319 33.6055 24.3711 34.0742H23.3652C23.3164 33.8757 23.1976 33.7194 23.0088 33.6055C22.8232 33.4915 22.584 33.4346 22.291 33.4346C21.9948 33.4346 21.749 33.4997 21.5537 33.6299C21.3584 33.7568 21.2607 33.9229 21.2607 34.1279C21.2607 34.2874 21.3291 34.4193 21.4658 34.5234C21.6025 34.6276 21.8158 34.7122 22.1055 34.7773L22.9893 34.9824C23.5003 35.0996 23.8747 35.2738 24.1123 35.5049C24.3532 35.736 24.4736 36.0452 24.4736 36.4326C24.4736 36.9274 24.2669 37.3294 23.8535 37.6387C23.4401 37.9479 22.9128 38.1025 22.2715 38.1025C21.64 38.1025 21.1289 37.9691 20.7383 37.7021C20.3509 37.432 20.1344 37.0609 20.0889 36.5889H21.1387C21.207 36.7972 21.3389 36.96 21.5342 37.0771C21.7295 37.1943 21.9834 37.2529 22.2959 37.2529C22.6247 37.2529 22.8932 37.1862 23.1016 37.0527C23.3099 36.9193 23.4141 36.7467 23.4141 36.5352C23.4141 36.2259 23.1536 36.0094 22.6328 35.8857L21.7051 35.6709C21.1973 35.5505 20.8229 35.3714 20.582 35.1338C20.3444 34.8962 20.2256 34.5804 20.2256 34.1865ZM26.0703 31.3594H27.1201V32.707H28.2725V33.5908H27.1201V36.3252C27.1201 36.6019 27.1803 36.8053 27.3008 36.9355C27.4212 37.0625 27.6117 37.126 27.8721 37.126C27.9762 37.126 28.1097 37.1178 28.2725 37.1016V37.9756C28.0641 38.0114 27.8737 38.0293 27.7012 38.0293C27.1185 38.0293 26.7002 37.9186 26.4463 37.6973C26.1956 37.4759 26.0703 37.1081 26.0703 36.5938V33.5908H25.2256V32.707H26.0703V31.3594ZM29.5078 38V32.6826H30.5186V33.5371H30.5967C30.7139 33.2344 30.901 33 31.1582 32.834C31.4186 32.6647 31.7246 32.5801 32.0762 32.5801C32.431 32.5801 32.7337 32.6647 32.9844 32.834C33.235 33.0033 33.4206 33.2376 33.541 33.5371H33.624C33.7607 33.2441 33.9723 33.0114 34.2588 32.8389C34.5485 32.6663 34.8757 32.5801 35.2402 32.5801C35.7773 32.5801 36.194 32.7347 36.4902 33.0439C36.7897 33.3532 36.9395 33.7845 36.9395 34.3379V38H35.8896V34.6113C35.8896 33.8984 35.5462 33.542 34.8594 33.542C34.5241 33.542 34.2523 33.6478 34.0439 33.8594C33.8389 34.071 33.7363 34.3363 33.7363 34.6553V38H32.7061V34.5088C32.7061 34.2093 32.6133 33.9733 32.4277 33.8008C32.2422 33.6283 31.9932 33.542 31.6807 33.542C31.3617 33.542 31.0947 33.6576 30.8799 33.8887C30.665 34.1198 30.5576 34.4062 30.5576 34.748V38H29.5078ZM41.5293 33.8496C41.2949 33.599 40.984 33.4736 40.5967 33.4736C40.2093 33.4736 39.8903 33.599 39.6396 33.8496C39.389 34.1003 39.249 34.4339 39.2197 34.8506H41.9053C41.8923 34.4307 41.7669 34.097 41.5293 33.8496ZM41.9004 36.5645H42.9111C42.7907 37.043 42.527 37.4189 42.1201 37.6924C41.7165 37.9658 41.2119 38.1025 40.6064 38.1025C39.8447 38.1025 39.2441 37.8584 38.8047 37.3701C38.3685 36.8786 38.1504 36.208 38.1504 35.3584C38.1504 34.5088 38.3717 33.8333 38.8145 33.332C39.2572 32.8307 39.8529 32.5801 40.6016 32.5801C41.3405 32.5801 41.9199 32.8177 42.3398 33.293C42.763 33.7682 42.9746 34.4242 42.9746 35.2607V35.627H39.2197V35.6855C39.236 36.1543 39.3711 36.5254 39.625 36.7988C39.8789 37.0723 40.2158 37.209 40.6357 37.209C41.277 37.209 41.6986 36.9941 41.9004 36.5645ZM44.2344 38V32.6826H45.2451V33.5273H45.3232C45.5999 32.8958 46.1289 32.5801 46.9102 32.5801C47.5026 32.5801 47.9567 32.751 48.2725 33.0928C48.5915 33.4346 48.751 33.9229 48.751 34.5576V38H47.7012V34.8213C47.7012 33.9684 47.3187 33.542 46.5537 33.542C46.1663 33.542 45.8571 33.6641 45.626 33.9082C45.3981 34.1491 45.2842 34.4762 45.2842 34.8896V38H44.2344ZM50.6016 31.3594H51.6514V32.707H52.8037V33.5908H51.6514V36.3252C51.6514 36.6019 51.7116 36.8053 51.832 36.9355C51.9525 37.0625 52.1429 37.126 52.4033 37.126C52.5075 37.126 52.641 37.1178 52.8037 37.1016V37.9756C52.5954 38.0114 52.4049 38.0293 52.2324 38.0293C51.6497 38.0293 51.2314 37.9186 50.9775 37.6973C50.7269 37.4759 50.6016 37.1081 50.6016 36.5938V33.5908H49.7568V32.707H50.6016V31.3594ZM9.39551 44.5947C10.0726 44.5947 10.6097 44.8421 11.0068 45.3369C11.404 45.8285 11.6025 46.4958 11.6025 47.3389C11.6025 48.182 11.404 48.8509 11.0068 49.3457C10.613 49.8405 10.0791 50.0879 9.40527 50.0879C9.02767 50.0879 8.69564 50.0098 8.40918 49.8535C8.12272 49.694 7.90951 49.4743 7.76953 49.1943H7.68652V51.7676H6.63672V44.6826H7.64746V45.5615H7.72559C7.88509 45.2588 8.11296 45.0228 8.40918 44.8535C8.7054 44.681 9.03418 44.5947 9.39551 44.5947ZM9.09766 49.1455C9.54362 49.1455 9.89193 48.986 10.1426 48.667C10.3965 48.3447 10.5234 47.902 10.5234 47.3389C10.5234 46.7757 10.3965 46.3346 10.1426 46.0156C9.89193 45.6966 9.54525 45.5371 9.10254 45.5371C8.65983 45.5371 8.3099 45.6999 8.05273 46.0254C7.79557 46.3477 7.66699 46.7871 7.66699 47.3438C7.66699 47.8971 7.79557 48.3366 8.05273 48.6621C8.3099 48.9844 8.6582 49.1455 9.09766 49.1455ZM15.1133 50.1025C14.332 50.1025 13.7184 49.8568 13.2725 49.3652C12.8265 48.8737 12.6035 48.1982 12.6035 47.3389C12.6035 46.4827 12.8265 45.8089 13.2725 45.3174C13.7217 44.8258 14.3353 44.5801 15.1133 44.5801C15.888 44.5801 16.4984 44.8258 16.9443 45.3174C17.3936 45.8089 17.6182 46.4827 17.6182 47.3389C17.6182 48.1982 17.3952 48.8737 16.9492 49.3652C16.5033 49.8568 15.8913 50.1025 15.1133 50.1025ZM15.1133 49.1699C15.5658 49.1699 15.9157 49.0104 16.1631 48.6914C16.4137 48.3691 16.5391 47.9183 16.5391 47.3389C16.5391 46.7627 16.4137 46.3151 16.1631 45.9961C15.9157 45.6738 15.5658 45.5127 15.1133 45.5127C14.6576 45.5127 14.306 45.6722 14.0586 45.9912C13.8112 46.3102 13.6875 46.7594 13.6875 47.3389C13.6875 47.9215 13.8112 48.3724 14.0586 48.6914C14.306 49.0104 14.6576 49.1699 15.1133 49.1699ZM18.8828 50V44.6826H19.8936V45.498H19.9717C20.0465 45.2344 20.2174 45.0179 20.4844 44.8486C20.7546 44.6794 21.0622 44.5947 21.4072 44.5947C21.6058 44.5947 21.762 44.6094 21.876 44.6387V45.6738C21.749 45.6315 21.5537 45.6104 21.29 45.6104C20.8896 45.6104 20.5625 45.7259 20.3086 45.957C20.0579 46.1882 19.9326 46.4893 19.9326 46.8604V50H18.8828ZM23.5312 43.3594H24.5811V44.707H25.7334V45.5908H24.5811V48.3252C24.5811 48.6019 24.6413 48.8053 24.7617 48.9355C24.8822 49.0625 25.0726 49.126 25.333 49.126C25.4372 49.126 25.5706 49.1178 25.7334 49.1016V49.9756C25.5251 50.0114 25.3346 50.0293 25.1621 50.0293C24.5794 50.0293 24.1611 49.9186 23.9072 49.6973C23.6566 49.4759 23.5312 49.1081 23.5312 48.5938V45.5908H22.6865V44.707H23.5312V43.3594ZM27.3643 50V45.5908H26.4902V44.707H27.3643V44.1357C27.3643 43.0843 27.9111 42.5586 29.0049 42.5586C29.2327 42.5586 29.4411 42.5765 29.6299 42.6123V43.4375C29.5322 43.418 29.3971 43.4082 29.2246 43.4082C28.9349 43.4082 28.7249 43.4733 28.5947 43.6035C28.4645 43.7337 28.3994 43.9323 28.3994 44.1992V44.707H29.5859V45.5908H28.4141V50H27.3643ZM32.8184 50.1025C32.0371 50.1025 31.4235 49.8568 30.9775 49.3652C30.5316 48.8737 30.3086 48.1982 30.3086 47.3389C30.3086 46.4827 30.5316 45.8089 30.9775 45.3174C31.4268 44.8258 32.0404 44.5801 32.8184 44.5801C33.5931 44.5801 34.2035 44.8258 34.6494 45.3174C35.0986 45.8089 35.3232 46.4827 35.3232 47.3389C35.3232 48.1982 35.1003 48.8737 34.6543 49.3652C34.2083 49.8568 33.5964 50.1025 32.8184 50.1025ZM32.8184 49.1699C33.2708 49.1699 33.6208 49.0104 33.8682 48.6914C34.1188 48.3691 34.2441 47.9183 34.2441 47.3389C34.2441 46.7627 34.1188 46.3151 33.8682 45.9961C33.6208 45.6738 33.2708 45.5127 32.8184 45.5127C32.3626 45.5127 32.0111 45.6722 31.7637 45.9912C31.5163 46.3102 31.3926 46.7594 31.3926 47.3389C31.3926 47.9215 31.5163 48.3724 31.7637 48.6914C32.0111 49.0104 32.3626 49.1699 32.8184 49.1699ZM36.6367 50V42.6074H37.6865V50H36.6367ZM39.2832 50V44.6826H40.3281V50H39.2832ZM40.2891 43.5693C40.1621 43.6898 40.001 43.75 39.8057 43.75C39.6104 43.75 39.4476 43.6898 39.3174 43.5693C39.1904 43.4456 39.127 43.2926 39.127 43.1104C39.127 42.9281 39.1904 42.7751 39.3174 42.6514C39.4476 42.5277 39.6104 42.4658 39.8057 42.4658C40.001 42.4658 40.1621 42.5277 40.2891 42.6514C40.4193 42.7751 40.4844 42.9281 40.4844 43.1104C40.4844 43.2926 40.4193 43.4456 40.2891 43.5693ZM44.1172 50.1025C43.3359 50.1025 42.7223 49.8568 42.2764 49.3652C41.8304 48.8737 41.6074 48.1982 41.6074 47.3389C41.6074 46.4827 41.8304 45.8089 42.2764 45.3174C42.7256 44.8258 43.3392 44.5801 44.1172 44.5801C44.8919 44.5801 45.5023 44.8258 45.9482 45.3174C46.3975 45.8089 46.6221 46.4827 46.6221 47.3389C46.6221 48.1982 46.3991 48.8737 45.9531 49.3652C45.5072 49.8568 44.8952 50.1025 44.1172 50.1025ZM44.1172 49.1699C44.5697 49.1699 44.9196 49.0104 45.167 48.6914C45.4176 48.3691 45.543 47.9183 45.543 47.3389C45.543 46.7627 45.4176 46.3151 45.167 45.9961C44.9196 45.6738 44.5697 45.5127 44.1172 45.5127C43.6615 45.5127 43.3099 45.6722 43.0625 45.9912C42.8151 46.3102 42.6914 46.7594 42.6914 47.3389C42.6914 47.9215 42.8151 48.3724 43.0625 48.6914C43.3099 49.0104 43.6615 49.1699 44.1172 49.1699Z" fill="white" fill-opacity="0.4"/>
<path d="M29 11H25V13H29V11Z" fill="white" fill-opacity="0.4"/>
<path fill-rule="evenodd" clip-rule="evenodd" d="M22 5V4C22 2.89545 22.8954 2 24 2H30C31.1046 2 32 2.89545 32 4V5H35C36.6569 5 38 6.34314 38 8V18C38 19.6569 36.6569 21 35 21H19C17.3431 21 16 19.6569 16 18V8C16 6.34314 17.3431 5 19 5H22ZM24 4H30V5H24V4ZM19 7C18.4478 7 18 7.44769 18 8V14H36V8C36 7.44769 35.5522 7 35 7H19ZM18 18V16H36V18C36 18.5523 35.5522 19 35 19H19C18.4478 19 18 18.5523 18 18Z" fill="white" fill-opacity="0.4"/>
</svg>
