<svg width="32" height="32" viewBox="0 0 32 32" fill="none" xmlns="http://www.w3.org/2000/svg">
<path d="M0 16C0 7.16344 7.16344 0 16 0C24.8366 0 32 7.16344 32 16C32 24.8366 24.8366 32 16 32C7.16344 32 0 24.8366 0 16Z" fill="white" fill-opacity="0.08"/>
<path d="M10.5999 12.4001C10.2685 12.4001 9.9999 12.6687 9.9999 13.0001V16.6001C9.9999 16.9314 10.2685 17.2001 10.5999 17.2001H21.3999C21.7312 17.2001 21.9999 16.9314 21.9999 16.6001V13.0001C21.9999 12.6687 21.7312 12.4001 21.3999 12.4001H10.5999ZM11.1999 16.0001V13.6001H20.7999V16.0001H11.1999ZM17.7999 18.4001C17.4686 18.4001 17.1999 18.6688 17.1999 19.0001V21.4001C17.1999 21.7314 17.4686 22.0001 17.7999 22.0001H21.3999C21.7312 22.0001 21.9999 21.7314 21.9999 21.4001V19.0001C21.9999 18.6688 21.7312 18.4001 21.3999 18.4001H17.7999ZM18.3999 20.8001V19.6001H20.7999V20.8001H18.3999ZM6.3999 9.4001C6.3999 8.40598 7.20579 7.6001 8.1999 7.6001H23.7999C24.794 7.6001 25.5999 8.40598 25.5999 9.4001C25.5999 10.1838 25.099 10.8506 24.3999 11.0977V23.8001C24.3999 24.1314 24.1312 24.4001 23.7999 24.4001H8.1999C7.86853 24.4001 7.5999 24.1314 7.5999 23.8001V11.0977C6.90078 10.8506 6.3999 10.1838 6.3999 9.4001ZM8.1999 8.8001C7.86853 8.8001 7.5999 9.06873 7.5999 9.4001C7.5999 9.73147 7.86853 10.0001 8.1999 10.0001H23.7999C24.1312 10.0001 24.3999 9.73147 24.3999 9.4001C24.3999 9.06873 24.1312 8.8001 23.7999 8.8001H8.1999ZM8.7999 11.2001V23.2001H9.9999V19.0001C9.9999 18.6688 10.2685 18.4001 10.5999 18.4001H15.3999C15.7313 18.4001 15.9999 18.6688 15.9999 19.0001V23.2001H23.1999V11.2001H8.7999ZM11.1999 23.2001H14.7999V19.6001H11.1999V23.2001Z" fill="#F99520"/>
</svg>
