<svg width="24" height="24" viewBox="0 0 24 24" fill="none" xmlns="http://www.w3.org/2000/svg">
<path d="M6.5999 8.4001C6.26853 8.4001 5.9999 8.66873 5.9999 9.0001V12.6001C5.9999 12.9314 6.26853 13.2001 6.5999 13.2001H17.3999C17.7312 13.2001 17.9999 12.9314 17.9999 12.6001V9.0001C17.9999 8.66873 17.7312 8.4001 17.3999 8.4001H6.5999ZM7.1999 12.0001V9.6001H16.7999V12.0001H7.1999ZM13.7999 14.4001C13.4686 14.4001 13.1999 14.6688 13.1999 15.0001V17.4001C13.1999 17.7314 13.4686 18.0001 13.7999 18.0001H17.3999C17.7312 18.0001 17.9999 17.7314 17.9999 17.4001V15.0001C17.9999 14.6688 17.7312 14.4001 17.3999 14.4001H13.7999ZM14.3999 16.8001V15.6001H16.7999V16.8001H14.3999ZM2.3999 5.4001C2.3999 4.40598 3.20579 3.6001 4.1999 3.6001H19.7999C20.794 3.6001 21.5999 4.40598 21.5999 5.4001C21.5999 6.18383 21.099 6.85057 20.3999 7.09768V19.8001C20.3999 20.1314 20.1312 20.4001 19.7999 20.4001H4.1999C3.86853 20.4001 3.5999 20.1314 3.5999 19.8001V7.09768C2.90078 6.85057 2.3999 6.18383 2.3999 5.4001ZM4.1999 4.8001C3.86853 4.8001 3.5999 5.06873 3.5999 5.4001C3.5999 5.73147 3.86853 6.0001 4.1999 6.0001H19.7999C20.1312 6.0001 20.3999 5.73147 20.3999 5.4001C20.3999 5.06873 20.1312 4.8001 19.7999 4.8001H4.1999ZM4.7999 7.2001V19.2001H5.9999V15.0001C5.9999 14.6688 6.26853 14.4001 6.5999 14.4001H11.3999C11.7313 14.4001 11.9999 14.6688 11.9999 15.0001V19.2001H19.1999V7.2001H4.7999ZM7.1999 19.2001H10.7999V15.6001H7.1999V19.2001Z" fill="#F99520"/>
</svg>
