<svg width="48" height="41" viewBox="0 0 48 41" fill="none" xmlns="http://www.w3.org/2000/svg">
<path d="M4.45898 36.1055H5.54297C5.58854 36.4408 5.7627 36.7077 6.06543 36.9062C6.37142 37.1016 6.76042 37.1992 7.23242 37.1992C7.67188 37.1992 8.03483 37.0983 8.32129 36.8965C8.611 36.6914 8.75586 36.4326 8.75586 36.1201C8.75586 35.8532 8.64844 35.6351 8.43359 35.4658C8.22201 35.2933 7.88184 35.1517 7.41309 35.041L6.50488 34.8213C5.86686 34.6715 5.39811 34.4388 5.09863 34.123C4.79915 33.8073 4.64941 33.3906 4.64941 32.873C4.64941 32.2448 4.88379 31.7402 5.35254 31.3594C5.82454 30.9753 6.44466 30.7832 7.21289 30.7832C7.92904 30.7832 8.52311 30.972 8.99512 31.3496C9.46712 31.7272 9.7194 32.2122 9.75195 32.8047H8.6875C8.63542 32.4792 8.47591 32.222 8.20898 32.0332C7.94531 31.8444 7.6084 31.75 7.19824 31.75C6.7653 31.75 6.41699 31.846 6.15332 32.0381C5.88965 32.2301 5.75781 32.484 5.75781 32.7998C5.75781 33.0505 5.8571 33.2539 6.05566 33.4102C6.25749 33.5664 6.58789 33.6982 7.04688 33.8057L7.82324 33.9961C8.5459 34.1654 9.06673 34.4062 9.38574 34.7188C9.70475 35.028 9.86426 35.4479 9.86426 35.9785C9.86426 36.6523 9.62012 37.1862 9.13184 37.5801C8.64355 37.974 7.98275 38.1709 7.14941 38.1709C6.36816 38.1709 5.7334 37.9837 5.24512 37.6094C4.76009 37.235 4.49805 36.7337 4.45898 36.1055ZM14.2979 33.8496C14.0635 33.599 13.7526 33.4736 13.3652 33.4736C12.9779 33.4736 12.6589 33.599 12.4082 33.8496C12.1576 34.1003 12.0176 34.4339 11.9883 34.8506H14.6738C14.6608 34.4307 14.5355 34.097 14.2979 33.8496ZM14.6689 36.5645H15.6797C15.5592 37.043 15.2956 37.4189 14.8887 37.6924C14.485 37.9658 13.9805 38.1025 13.375 38.1025C12.6133 38.1025 12.0127 37.8584 11.5732 37.3701C11.137 36.8786 10.9189 36.208 10.9189 35.3584C10.9189 34.5088 11.1403 33.8333 11.583 33.332C12.0257 32.8307 12.6214 32.5801 13.3701 32.5801C14.109 32.5801 14.6885 32.8177 15.1084 33.293C15.5316 33.7682 15.7432 34.4242 15.7432 35.2607V35.627H11.9883V35.6855C12.0046 36.1543 12.1396 36.5254 12.3936 36.7988C12.6475 37.0723 12.9844 37.209 13.4043 37.209C14.0456 37.209 14.4671 36.9941 14.6689 36.5645ZM17.374 31.3594H18.4238V32.707H19.5762V33.5908H18.4238V36.3252C18.4238 36.6019 18.484 36.8053 18.6045 36.9355C18.7249 37.0625 18.9154 37.126 19.1758 37.126C19.2799 37.126 19.4134 37.1178 19.5762 37.1016V37.9756C19.3678 38.0114 19.1774 38.0293 19.0049 38.0293C18.4222 38.0293 18.0039 37.9186 17.75 37.6973C17.4993 37.4759 17.374 37.1081 17.374 36.5938V33.5908H16.5293V32.707H17.374V31.3594ZM21.2021 31.3594H22.252V32.707H23.4043V33.5908H22.252V36.3252C22.252 36.6019 22.3122 36.8053 22.4326 36.9355C22.5531 37.0625 22.7435 37.126 23.0039 37.126C23.1081 37.126 23.2415 37.1178 23.4043 37.1016V37.9756C23.196 38.0114 23.0055 38.0293 22.833 38.0293C22.2503 38.0293 21.832 37.9186 21.5781 37.6973C21.3275 37.4759 21.2021 37.1081 21.2021 36.5938V33.5908H20.3574V32.707H21.2021V31.3594ZM24.6592 38V32.6826H25.7041V38H24.6592ZM25.665 31.5693C25.5381 31.6898 25.377 31.75 25.1816 31.75C24.9863 31.75 24.8236 31.6898 24.6934 31.5693C24.5664 31.4456 24.5029 31.2926 24.5029 31.1104C24.5029 30.9281 24.5664 30.7751 24.6934 30.6514C24.8236 30.5277 24.9863 30.4658 25.1816 30.4658C25.377 30.4658 25.5381 30.5277 25.665 30.6514C25.7952 30.7751 25.8604 30.9281 25.8604 31.1104C25.8604 31.2926 25.7952 31.4456 25.665 31.5693ZM27.2471 38V32.6826H28.2578V33.5273H28.3359C28.6126 32.8958 29.1416 32.5801 29.9229 32.5801C30.5153 32.5801 30.9694 32.751 31.2852 33.0928C31.6042 33.4346 31.7637 33.9229 31.7637 34.5576V38H30.7139V34.8213C30.7139 33.9684 30.3314 33.542 29.5664 33.542C29.179 33.542 28.8698 33.6641 28.6387 33.9082C28.4108 34.1491 28.2969 34.4762 28.2969 34.8896V38H27.2471ZM34.4297 36.5498C34.6771 36.859 35.0238 37.0137 35.4697 37.0137C35.9157 37.0137 36.2673 36.8574 36.5244 36.5449C36.7816 36.2324 36.9102 35.8092 36.9102 35.2754C36.9102 34.7448 36.7816 34.3232 36.5244 34.0107C36.2673 33.695 35.9157 33.5371 35.4697 33.5371C35.0238 33.5371 34.6771 33.6934 34.4297 34.0059C34.1823 34.3151 34.0586 34.7383 34.0586 35.2754C34.0586 35.8125 34.1823 36.2373 34.4297 36.5498ZM35.4844 40.0312C34.8268 40.0312 34.293 39.8945 33.8828 39.6211C33.4727 39.3509 33.2399 38.988 33.1846 38.5322H34.2588C34.3044 38.7275 34.4346 38.8822 34.6494 38.9961C34.8675 39.11 35.1507 39.167 35.499 39.167C35.9352 39.167 36.2754 39.0677 36.5195 38.8691C36.7669 38.6738 36.8906 38.4004 36.8906 38.0488V37.0283H36.8125C36.653 37.3148 36.4316 37.5361 36.1484 37.6924C35.8652 37.8454 35.5397 37.9219 35.1719 37.9219C34.498 37.9219 33.9626 37.6826 33.5654 37.2041C33.1715 36.7223 32.9746 36.0811 32.9746 35.2803C32.9746 34.4665 33.1732 33.8154 33.5703 33.3271C33.9674 32.8389 34.5046 32.5947 35.1816 32.5947C35.5462 32.5947 35.8783 32.6794 36.1777 32.8486C36.4772 33.0146 36.7018 33.2425 36.8516 33.5322H36.9346V32.6826H37.9404V38.0439C37.9404 38.6527 37.7191 39.1361 37.2764 39.4941C36.8337 39.8522 36.2363 40.0312 35.4844 40.0312ZM39.3418 34.1865C39.3418 33.7178 39.5355 33.3337 39.9229 33.0342C40.3102 32.7314 40.805 32.5801 41.4072 32.5801C42.0062 32.5801 42.4896 32.7119 42.8574 32.9756C43.2253 33.2393 43.4352 33.6055 43.4873 34.0742H42.4814C42.4326 33.8757 42.3138 33.7194 42.125 33.6055C41.9395 33.4915 41.7002 33.4346 41.4072 33.4346C41.111 33.4346 40.8652 33.4997 40.6699 33.6299C40.4746 33.7568 40.377 33.9229 40.377 34.1279C40.377 34.2874 40.4453 34.4193 40.582 34.5234C40.7188 34.6276 40.932 34.7122 41.2217 34.7773L42.1055 34.9824C42.6165 35.0996 42.9909 35.2738 43.2285 35.5049C43.4694 35.736 43.5898 36.0452 43.5898 36.4326C43.5898 36.9274 43.3831 37.3294 42.9697 37.6387C42.5563 37.9479 42.029 38.1025 41.3877 38.1025C40.7562 38.1025 40.2451 37.9691 39.8545 37.7021C39.4671 37.432 39.2507 37.0609 39.2051 36.5889H40.2549C40.3232 36.7972 40.4551 36.96 40.6504 37.0771C40.8457 37.1943 41.0996 37.2529 41.4121 37.2529C41.7409 37.2529 42.0094 37.1862 42.2178 37.0527C42.4261 36.9193 42.5303 36.7467 42.5303 36.5352C42.5303 36.2259 42.2699 36.0094 41.749 35.8857L40.8213 35.6709C40.3135 35.5505 39.9391 35.3714 39.6982 35.1338C39.4606 34.8962 39.3418 34.5804 39.3418 34.1865Z" fill="white" fill-opacity="0.4"/>
<path d="M15 17V19H21V17H15ZM15 5V7H25V5H15ZM25 21V19H33V17H25V15H23V21H25ZM19 9V11H15V13H19V15H21V9H19ZM33 13V11H23V13H33ZM27 9H29V7H33V5H29V3H27V9Z" fill="white" fill-opacity="0.4"/>
</svg>
