<svg width="48" height="40" viewBox="0 0 48 40" fill="none" xmlns="http://www.w3.org/2000/svg">
<path d="M10.2383 36.1055H11.3223C11.3678 36.4408 11.542 36.7077 11.8447 36.9062C12.1507 37.1016 12.5397 37.1992 13.0117 37.1992C13.4512 37.1992 13.8141 37.0983 14.1006 36.8965C14.3903 36.6914 14.5352 36.4326 14.5352 36.1201C14.5352 35.8532 14.4277 35.6351 14.2129 35.4658C14.0013 35.2933 13.6611 35.1517 13.1924 35.041L12.2842 34.8213C11.6462 34.6715 11.1774 34.4388 10.8779 34.123C10.5785 33.8073 10.4287 33.3906 10.4287 32.873C10.4287 32.2448 10.6631 31.7402 11.1318 31.3594C11.6038 30.9753 12.224 30.7832 12.9922 30.7832C13.7083 30.7832 14.3024 30.972 14.7744 31.3496C15.2464 31.7272 15.4987 32.2122 15.5312 32.8047H14.4668C14.4147 32.4792 14.2552 32.222 13.9883 32.0332C13.7246 31.8444 13.3877 31.75 12.9775 31.75C12.5446 31.75 12.1963 31.846 11.9326 32.0381C11.6689 32.2301 11.5371 32.484 11.5371 32.7998C11.5371 33.0505 11.6364 33.2539 11.835 33.4102C12.0368 33.5664 12.3672 33.6982 12.8262 33.8057L13.6025 33.9961C14.3252 34.1654 14.846 34.4062 15.165 34.7188C15.484 35.028 15.6436 35.4479 15.6436 35.9785C15.6436 36.6523 15.3994 37.1862 14.9111 37.5801C14.4229 37.974 13.762 38.1709 12.9287 38.1709C12.1475 38.1709 11.5127 37.9837 11.0244 37.6094C10.5394 37.235 10.2773 36.7337 10.2383 36.1055ZM17.333 31.3594H18.3828V32.707H19.5352V33.5908H18.3828V36.3252C18.3828 36.6019 18.443 36.8053 18.5635 36.9355C18.6839 37.0625 18.8743 37.126 19.1348 37.126C19.2389 37.126 19.3724 37.1178 19.5352 37.1016V37.9756C19.3268 38.0114 19.1364 38.0293 18.9639 38.0293C18.3812 38.0293 17.9629 37.9186 17.709 37.6973C17.4583 37.4759 17.333 37.1081 17.333 36.5938V33.5908H16.4883V32.707H17.333V31.3594ZM22.958 38.1025C22.1768 38.1025 21.5632 37.8568 21.1172 37.3652C20.6712 36.8737 20.4482 36.1982 20.4482 35.3389C20.4482 34.4827 20.6712 33.8089 21.1172 33.3174C21.5664 32.8258 22.18 32.5801 22.958 32.5801C23.7327 32.5801 24.3431 32.8258 24.7891 33.3174C25.2383 33.8089 25.4629 34.4827 25.4629 35.3389C25.4629 36.1982 25.2399 36.8737 24.7939 37.3652C24.348 37.8568 23.736 38.1025 22.958 38.1025ZM22.958 37.1699C23.4105 37.1699 23.7604 37.0104 24.0078 36.6914C24.2585 36.3691 24.3838 35.9183 24.3838 35.3389C24.3838 34.7627 24.2585 34.3151 24.0078 33.9961C23.7604 33.6738 23.4105 33.5127 22.958 33.5127C22.5023 33.5127 22.1507 33.6722 21.9033 33.9912C21.6559 34.3102 21.5322 34.7594 21.5322 35.3389C21.5322 35.9215 21.6559 36.3724 21.9033 36.6914C22.1507 37.0104 22.5023 37.1699 22.958 37.1699ZM31.2295 34.4209H30.209C30.1439 34.1507 30.0023 33.9326 29.7842 33.7666C29.5693 33.6006 29.2926 33.5176 28.9541 33.5176C28.5146 33.5176 28.168 33.6771 27.9141 33.9961C27.6634 34.3151 27.5381 34.7578 27.5381 35.3242C27.5381 35.8971 27.6634 36.348 27.9141 36.6768C28.168 37.0023 28.5146 37.165 28.9541 37.165C29.2894 37.165 29.5645 37.0902 29.7793 36.9404C29.9974 36.7907 30.1406 36.5742 30.209 36.291H31.2295C31.1611 36.8379 30.9268 37.2773 30.5264 37.6094C30.126 37.9382 29.6035 38.1025 28.959 38.1025C28.1842 38.1025 27.5739 37.8568 27.1279 37.3652C26.6852 36.8704 26.4639 36.1901 26.4639 35.3242C26.4639 34.4714 26.6852 33.8008 27.1279 33.3125C27.5706 32.8242 28.1794 32.5801 28.9541 32.5801C29.6019 32.5801 30.1243 32.7493 30.5215 33.0879C30.9219 33.4264 31.1579 33.8708 31.2295 34.4209ZM33.6123 34.8994L35.7217 32.6826H36.9619L34.7744 34.9629L37.1084 38H35.8193L33.9932 35.6562L33.5293 36.0957V38H32.4795V30.6074H33.5293V34.8994H33.6123Z" fill="white" fill-opacity="0.4"/>
<path d="M33.1875 17.5077H14.8125C14.7094 17.5077 14.625 17.5921 14.625 17.6952V19.0077C14.625 19.1108 14.7094 19.1952 14.8125 19.1952H33.1875C33.2906 19.1952 33.375 19.1108 33.375 19.0077V17.6952C33.375 17.5921 33.2906 17.5077 33.1875 17.5077ZM15.8836 14.5733L16.8141 15.4991C16.8867 15.5718 17.0062 15.5718 17.0789 15.4991L22.5797 10.0171L24.8672 12.2975C25.0081 12.4372 25.1985 12.5155 25.3969 12.5155C25.5953 12.5155 25.7856 12.4372 25.9266 12.2975L32.1188 6.12879C32.1914 6.05613 32.1914 5.9366 32.1188 5.86394L31.1883 4.93582C31.153 4.90092 31.1055 4.88135 31.0559 4.88135C31.0063 4.88135 30.9587 4.90092 30.9234 4.93582L25.3992 10.4436L23.1094 8.16316C22.9684 8.02353 22.7781 7.94519 22.5797 7.94519C22.3813 7.94519 22.1909 8.02353 22.05 8.16316L15.8836 14.3085C15.8661 14.3258 15.8521 14.3464 15.8426 14.3691C15.8331 14.3919 15.8282 14.4163 15.8282 14.4409C15.8282 14.4655 15.8331 14.4899 15.8426 14.5127C15.8521 14.5354 15.8661 14.556 15.8836 14.5733Z" fill="white" fill-opacity="0.4"/>
</svg>
