<svg width="24" height="24" viewBox="0 0 24 24" fill="none" xmlns="http://www.w3.org/2000/svg">
<path d="M21.1875 17.5077H2.8125C2.70937 17.5077 2.625 17.5921 2.625 17.6952V19.0077C2.625 19.1108 2.70937 19.1952 2.8125 19.1952H21.1875C21.2906 19.1952 21.375 19.1108 21.375 19.0077V17.6952C21.375 17.5921 21.2906 17.5077 21.1875 17.5077ZM3.88359 14.5733L4.81406 15.4991C4.88672 15.5718 5.00625 15.5718 5.07891 15.4991L10.5797 10.0171L12.8672 12.2975C13.0081 12.4372 13.1985 12.5155 13.3969 12.5155C13.5953 12.5155 13.7856 12.4372 13.9266 12.2975L20.1188 6.12879C20.1914 6.05613 20.1914 5.9366 20.1188 5.86394L19.1883 4.93582C19.153 4.90092 19.1055 4.88135 19.0559 4.88135C19.0063 4.88135 18.9587 4.90092 18.9234 4.93582L13.3992 10.4436L11.1094 8.16316C10.9684 8.02353 10.7781 7.94519 10.5797 7.94519C10.3813 7.94519 10.1909 8.02353 10.05 8.16316L3.88359 14.3085C3.86606 14.3258 3.85214 14.3464 3.84264 14.3691C3.83314 14.3919 3.82825 14.4163 3.82825 14.4409C3.82825 14.4655 3.83314 14.4899 3.84264 14.5127C3.85214 14.5354 3.86606 14.556 3.88359 14.5733Z" fill="white" fill-opacity="0.4"/>
</svg>
