<svg width="32" height="32" viewBox="0 0 32 32" fill="none" xmlns="http://www.w3.org/2000/svg">
<path d="M0 16C0 7.16344 7.16344 0 16 0C24.8366 0 32 7.16344 32 16C32 24.8366 24.8366 32 16 32C7.16344 32 0 24.8366 0 16Z" fill="white" fill-opacity="0.08"/>
<path d="M16.0001 19.5C15.0718 19.5 14.1816 19.1313 13.5252 18.4749C12.8688 17.8185 12.5001 16.9283 12.5001 16C12.5001 15.0717 12.8688 14.1815 13.5252 13.5251C14.1816 12.8687 15.0718 12.5 16.0001 12.5C16.9283 12.5 17.8186 12.8687 18.475 13.5251C19.1313 14.1815 19.5001 15.0717 19.5001 16C19.5001 16.9283 19.1313 17.8185 18.475 18.4749C17.8186 19.1313 16.9283 19.5 16.0001 19.5ZM23.4301 16.97C23.4701 16.65 23.5001 16.33 23.5001 16C23.5001 15.67 23.4701 15.34 23.4301 15L25.5401 13.37C25.7301 13.22 25.7801 12.95 25.6601 12.73L23.6601 9.27C23.5401 9.05 23.2701 8.96 23.0501 9.05L20.5601 10.05C20.0401 9.66 19.5001 9.32 18.8701 9.07L18.5001 6.42C18.4601 6.18 18.2501 6 18.0001 6H14.0001C13.7501 6 13.5401 6.18 13.5001 6.42L13.1301 9.07C12.5001 9.32 11.9601 9.66 11.4401 10.05L8.95008 9.05C8.73008 8.96 8.46008 9.05 8.34008 9.27L6.34008 12.73C6.21008 12.95 6.27008 13.22 6.46008 13.37L8.57008 15C8.53008 15.34 8.50008 15.67 8.50008 16C8.50008 16.33 8.53008 16.65 8.57008 16.97L6.46008 18.63C6.27008 18.78 6.21008 19.05 6.34008 19.27L8.34008 22.73C8.46008 22.95 8.73008 23.03 8.95008 22.95L11.4401 21.94C11.9601 22.34 12.5001 22.68 13.1301 22.93L13.5001 25.58C13.5401 25.82 13.7501 26 14.0001 26H18.0001C18.2501 26 18.4601 25.82 18.5001 25.58L18.8701 22.93C19.5001 22.67 20.0401 22.34 20.5601 21.94L23.0501 22.95C23.2701 23.03 23.5401 22.95 23.6601 22.73L25.6601 19.27C25.7801 19.05 25.7301 18.78 25.5401 18.63L23.4301 16.97Z" fill="#EB5757"/>
</svg>
