<svg width="40" height="40" viewBox="0 0 40 40" fill="none" xmlns="http://www.w3.org/2000/svg">
<path d="M0 20C0 8.95431 8.95431 0 20 0C31.0457 0 40 8.95431 40 20C40 31.0457 31.0457 40 20 40C8.95431 40 0 31.0457 0 20Z" fill="white" fill-opacity="0.08"/>
<path fill-rule="evenodd" clip-rule="evenodd" d="M11.4036 11.9443C11.4036 10.8398 12.299 9.94434 13.4036 9.94434H24.3464L28.7369 14.3349V27.9443C28.7369 29.0489 27.8414 29.9443 26.7369 29.9443H13.4036C12.299 29.9443 11.4036 29.0489 11.4036 27.9443V11.9443ZM15.4041 15.2738L22.0708 15.2781L22.0699 16.6115L15.4032 16.6071L15.4041 15.2738ZM24.7369 19.2716H15.4036V20.6049H24.7369V19.2716ZM24.7377 23.2783L15.4044 23.2682L15.4029 24.6015L24.7362 24.6117L24.7377 23.2783Z" fill="#87CEEB"/>
</svg>
