<svg width="24" height="24" viewBox="0 0 24 24" fill="none" xmlns="http://www.w3.org/2000/svg">
<path fill-rule="evenodd" clip-rule="evenodd" d="M10 3C8.89541 3 8 3.89544 8 5V9H5.5C5.24861 9 5.00644 9.09468 4.82172 9.26519L1.32172 12.4959C1.11664 12.6853 1 12.9517 1 13.2308V17C1 17.5523 1.44772 18 2 18H4C4 19.6568 5.34317 21 7 21C8.65683 21 10 19.6568 10 18H15C15 19.6568 16.3432 21 18 21C19.6568 21 21 19.6568 21 18C22.1046 18 23 17.1046 23 16V5C23 3.89544 22.1046 3 21 3H10ZM19 18H17C17 18.5523 17.4477 19 18 19C18.5523 19 19 18.5523 19 18ZM7 19C6.44773 19 6 18.5523 6 18H8C8 18.5523 7.55227 19 7 19ZM10 5H21V16H10V5ZM3 13.6686L5.89098 11H8V16H3V13.6686Z" fill="#87CEEB"/>
</svg>
