<svg width="32" height="32" viewBox="0 0 32 32" fill="none" xmlns="http://www.w3.org/2000/svg">
<path d="M0 16C0 7.16344 7.16344 0 16 0C24.8366 0 32 7.16344 32 16C32 24.8366 24.8366 32 16 32C7.16344 32 0 24.8366 0 16Z" fill="white" fill-opacity="0.08"/>
<path fill-rule="evenodd" clip-rule="evenodd" d="M14 7C12.8954 7 12 7.89544 12 9V13H9.5C9.24861 13 9.00644 13.0947 8.82172 13.2652L5.32172 16.4959C5.11664 16.6853 5 16.9517 5 17.2308V21C5 21.5523 5.44772 22 6 22H8C8 23.6568 9.34317 25 11 25C12.6568 25 14 23.6568 14 22H19C19 23.6568 20.3432 25 22 25C23.6568 25 25 23.6568 25 22C26.1046 22 27 21.1046 27 20V9C27 7.89544 26.1046 7 25 7H14ZM23 22H21C21 22.5523 21.4477 23 22 23C22.5523 23 23 22.5523 23 22ZM11 23C10.4477 23 10 22.5523 10 22H12C12 22.5523 11.5523 23 11 23ZM14 9H25V20H14V9ZM7 17.6686L9.89098 15H12V20H7V17.6686Z" fill="#87CEEB"/>
</svg>
