<svg width="32" height="32" viewBox="0 0 32 32" fill="none" xmlns="http://www.w3.org/2000/svg">
<path d="M0 16C0 7.16344 7.16344 0 16 0C24.8366 0 32 7.16344 32 16C32 24.8366 24.8366 32 16 32C7.16344 32 0 24.8366 0 16Z" fill="white" fill-opacity="0.08"/>
<path d="M12.16 7L10.75 8.41L13.34 11H8C6.89 11 6 11.89 6 13V23C6 24.11 6.89 25 8 25H24C25.11 25 26 24.11 26 23V13C26 11.89 25.11 11 24 11H18.66L21.25 8.41L19.84 7L16 10.84L12.16 7ZM8 13H21V23H8V13ZM23.5 13C23.7652 13 24.0196 13.1054 24.2071 13.2929C24.3946 13.4804 24.5 13.7348 24.5 14C24.5 14.2652 24.3946 14.5196 24.2071 14.7071C24.0196 14.8946 23.7652 15 23.5 15C23.2348 15 22.9804 14.8946 22.7929 14.7071C22.6054 14.5196 22.5 14.2652 22.5 14C22.5 13.7348 22.6054 13.4804 22.7929 13.2929C22.9804 13.1054 23.2348 13 23.5 13ZM23.5 16C23.7652 16 24.0196 16.1054 24.2071 16.2929C24.3946 16.4804 24.5 16.7348 24.5 17C24.5 17.2652 24.3946 17.5196 24.2071 17.7071C24.0196 17.8946 23.7652 18 23.5 18C23.2348 18 22.9804 17.8946 22.7929 17.7071C22.6054 17.5196 22.5 17.2652 22.5 17C22.5 16.7348 22.6054 16.4804 22.7929 16.2929C22.9804 16.1054 23.2348 16 23.5 16Z" fill="#F2C94C"/>
</svg>
